<?xml version="1.0" encoding="UTF-8" standalone="no"?>
<!-- Created with Inkscape (http://www.inkscape.org/) -->

<svg
   xmlns:dc="http://purl.org/dc/elements/1.1/"
   xmlns:cc="http://creativecommons.org/ns#"
   xmlns:rdf="http://www.w3.org/1999/02/22-rdf-syntax-ns#"
   xmlns:svg="http://www.w3.org/2000/svg"
   xmlns="http://www.w3.org/2000/svg"
   xmlns:sodipodi="http://sodipodi.sourceforge.net/DTD/sodipodi-0.dtd"
   xmlns:inkscape="http://www.inkscape.org/namespaces/inkscape"
   width="210mm"
   height="297mm"
   viewBox="0 0 210 297"
   version="1.1"
   id="svg8"
   inkscape:version="0.92.5 (2060ec1f9f, 2020-04-08)"
   sodipodi:docname="Rebeca.svg">
  <defs
     id="defs2">
    <inkscape:perspective
       sodipodi:type="inkscape:persp3d"
       inkscape:vp_x="27.982505 : 148.71095 : 1"
       inkscape:vp_y="0 : 1000 : 0"
       inkscape:vp_z="267.27567 : 167.79875 : 1"
       inkscape:persp3d-origin="152.0703 : 152.88357 : 1"
       id="perspective835" />
    <inkscape:perspective
       sodipodi:type="inkscape:persp3d"
       inkscape:vp_x="142.64703 : 54.365867 : 1"
       inkscape:vp_y="0 : 931.05095 : 0"
       inkscape:vp_z="324.79498 : 56.829296 : 1"
       inkscape:persp3d-origin="240.40738 : 18.836328 : 1"
       id="perspective835-1" />
    <inkscape:perspective
       sodipodi:type="inkscape:persp3d"
       inkscape:vp_x="-11.232529 : 100.90788 : 1"
       inkscape:vp_y="0 : 931.05095 : 0"
       inkscape:vp_z="170.91542 : 103.37131 : 1"
       inkscape:persp3d-origin="86.527821 : 65.378334 : 1"
       id="perspective835-9" />
    <inkscape:perspective
       sodipodi:type="inkscape:persp3d"
       inkscape:vp_x="22.403751 : 99.890528 : 1"
       inkscape:vp_y="0 : 931.05095 : 0"
       inkscape:vp_z="193.77935 : 135.0489 : 1"
       inkscape:persp3d-origin="120.16411 : 64.360998 : 1"
       id="perspective835-6" />
  </defs>
  <sodipodi:namedview
     id="base"
     pagecolor="#ffffff"
     bordercolor="#666666"
     borderopacity="1.0"
     inkscape:pageopacity="0.0"
     inkscape:pageshadow="2"
     inkscape:zoom="0.7"
     inkscape:cx="-234.9702"
     inkscape:cy="517.36508"
     inkscape:document-units="mm"
     inkscape:current-layer="layer1"
     showgrid="false"
     inkscape:window-width="2488"
     inkscape:window-height="1016"
     inkscape:window-x="72"
     inkscape:window-y="27"
     inkscape:window-maximized="1" />
  <metadata
     id="metadata5">
    <rdf:RDF>
      <cc:Work
         rdf:about="">
        <dc:format>image/svg+xml</dc:format>
        <dc:type
           rdf:resource="http://purl.org/dc/dcmitype/StillImage" />
        <dc:title></dc:title>
      </cc:Work>
    </rdf:RDF>
  </metadata>
  <g
     inkscape:label="Layer 1"
     inkscape:groupmode="layer"
     id="layer1">
    <text
       xml:space="preserve"
       style="font-style:normal;font-variant:normal;font-weight:normal;font-stretch:normal;font-size:15.08779144px;line-height:1.25;font-family:'Noto Sans Mono CJK HK';-inkscape-font-specification:'Noto Sans Mono CJK HK';letter-spacing:0px;word-spacing:0px;fill:#000000;fill-opacity:1;stroke:none;stroke-width:0.37719479"
       x="48.778763"
       y="214.20929"
       id="text817"><tspan
         sodipodi:role="line"
         id="tspan815"
         x="48.778763"
         y="214.20929"
         style="stroke-width:0.37719479">REBECA</tspan></text>
    <path
       style="fill:#487fc6;fill-opacity:1;stroke:none;stroke-width:0.04492715;stroke-miterlimit:4;stroke-dasharray:0.08985429, 0.04492715;stroke-dashoffset:0"
       d="m 38.143753,201.95283 c -1.4319,-0.89026 -2.608767,-1.62379 -2.61526,-1.63007 -0.0204,-0.0197 5.212685,-3.10276 5.266576,-3.10276 0.0519,0 5.199683,3.08425 5.179351,3.10316 -0.0095,0.009 -5.052894,3.144 -5.179965,3.22005 -0.02599,0.0155 -1.218803,-0.70012 -2.650702,-1.59038 z"
       id="path1238"
       inkscape:connector-curvature="0" />
    <path
       style="fill:#203762;fill-opacity:1;stroke:none;stroke-width:0.04492715;stroke-miterlimit:4;stroke-dasharray:0.08985429, 0.04492715;stroke-dashoffset:0"
       d="m 38.044988,208.0609 -2.617007,-1.57542 0.0058,-2.36392 c 0.0032,-1.30015 0.01835,-2.66066 0.0337,-3.02334 l 0.0279,-0.65942 2.557808,1.59087 c 1.406794,0.87497 2.574484,1.60754 2.594866,1.62792 0.02038,0.0204 0.03186,1.37394 0.0255,3.0079 l -0.01156,2.97083 z"
       id="path1240"
       inkscape:connector-curvature="0" />
    <path
       style="fill:#2a4da0;fill-opacity:1;stroke:none;stroke-width:0.04492715;stroke-miterlimit:4;stroke-dasharray:0.08985429, 0.04492715;stroke-dashoffset:0"
       d="m 40.830151,206.65213 0.01155,-3.00099 2.583311,-1.60701 2.583311,-1.60703 0.02746,1.46896 c 0.0151,0.80793 0.03027,2.16798 0.0337,3.02233 l 0.0062,1.55337 -2.527152,1.52102 c -1.389934,0.83656 -2.572785,1.55012 -2.628558,1.58568 l -0.101406,0.0647 z"
       id="path1242"
       inkscape:connector-curvature="0" />
    <path
       style="fill:#f47745;fill-opacity:1;stroke:none;stroke-width:0.04492715;stroke-miterlimit:4;stroke-dasharray:0.08985429, 0.04492715;stroke-dashoffset:0"
       d="m 32.372596,211.87054 c -1.4319,-0.89026 -2.60877,-1.62379 -2.61526,-1.63007 -0.0204,-0.0197 5.21269,-3.10275 5.26658,-3.10275 0.0519,0 5.199669,3.08424 5.179337,3.10315 -0.0095,0.009 -5.052887,3.144 -5.179957,3.22005 -0.026,0.0155 -1.2188,-0.70012 -2.6507,-1.59038 z"
       id="path1238-9"
       inkscape:connector-curvature="0" />
    <path
       style="fill:#b23426;fill-opacity:1;stroke:none;stroke-width:0.04492715;stroke-miterlimit:4;stroke-dasharray:0.08985429, 0.04492715;stroke-dashoffset:0"
       d="m 32.273836,217.97861 -2.61701,-1.57542 0.006,-2.36392 c 0.003,-1.30015 0.0183,-2.66065 0.0337,-3.02333 l 0.0279,-0.65943 2.55781,1.59087 c 1.40679,0.87498 2.57448,1.60755 2.59486,1.62793 0.0204,0.0204 0.0319,1.37393 0.0255,3.00789 l -0.0116,2.97083 z"
       id="path1240-9"
       inkscape:connector-curvature="0" />
    <path
       style="fill:#f15728;fill-opacity:1;stroke:none;stroke-width:0.04492715;stroke-miterlimit:4;stroke-dasharray:0.08985429, 0.04492715;stroke-dashoffset:0"
       d="m 35.058986,216.56984 0.0115,-3.00098 2.583309,-1.60702 2.583312,-1.60702 0.02746,1.46896 c 0.01511,0.80793 0.03027,2.16797 0.0337,3.02232 l 0.0062,1.55337 -2.527152,1.52103 c -1.389934,0.83656 -2.572789,1.55011 -2.628549,1.58567 l -0.1014,0.0647 z"
       id="path1242-1"
       inkscape:connector-curvature="0" />
    <path
       style="fill:#487fc6;fill-opacity:1;stroke:none;stroke-width:0.04492715;stroke-miterlimit:4;stroke-dasharray:0.08985429, 0.04492715;stroke-dashoffset:0"
       d="m 26.841046,201.83075 c -1.4319,-0.89026 -2.60877,-1.62379 -2.61526,-1.63007 -0.0204,-0.0197 5.21269,-3.10276 5.26658,-3.10276 0.0519,0 5.19968,3.08425 5.17935,3.10316 -0.01,0.009 -5.05289,3.14399 -5.17996,3.22004 -0.026,0.0155 -1.21881,-0.70011 -2.65071,-1.59037 z"
       id="path1238-4"
       inkscape:connector-curvature="0" />
    <path
       style="fill:#203762;fill-opacity:1;stroke:none;stroke-width:0.04492715;stroke-miterlimit:4;stroke-dasharray:0.08985429, 0.04492715;stroke-dashoffset:0"
       d="m 26.742286,207.93882 -2.61701,-1.57543 0.006,-2.36391 c 0.003,-1.30015 0.0183,-2.66066 0.0337,-3.02334 l 0.0279,-0.65942 2.55781,1.59087 c 1.4068,0.87497 2.57449,1.60754 2.59487,1.62792 0.0204,0.0204 0.0319,1.37394 0.0255,3.00789 l -0.0115,2.97084 z"
       id="path1240-91"
       inkscape:connector-curvature="0" />
    <path
       style="fill:#2a4da0;fill-opacity:1;stroke:none;stroke-width:0.04492715;stroke-miterlimit:4;stroke-dasharray:0.08985429, 0.04492715;stroke-dashoffset:0"
       d="m 29.527446,206.53005 0.0115,-3.00099 2.58332,-1.60702 2.58331,-1.60702 0.0275,1.46896 c 0.0151,0.80793 0.0303,2.16798 0.0337,3.02233 l 0.006,1.55337 -2.52715,1.52102 c -1.38994,0.83656 -2.57279,1.55012 -2.62856,1.58568 l -0.10141,0.0647 z"
       id="path1242-0"
       inkscape:connector-curvature="0" />
  </g>
</svg>
